HIERARCHY
ROOT Hips
{
  OFFSET -61.3549 37.6655 2.31808
  CHANNELS 6 Xposition Yposition Zposition Zrotation Xrotation Yrotation
  JOINT ToSpine
  {
    OFFSET -2.69724 7.43032 -0.144315
    CHANNELS 3 Zrotation Xrotation Yrotation
    JOINT Spine
    {
      OFFSET -0.0310711 10.7595 1.96963
      CHANNELS 3 Zrotation Xrotation Yrotation
      JOINT Spine1
      {
        OFFSET 13.1342 3.43533 0.764692
        CHANNELS 3 Zrotation Xrotation Yrotation
        JOINT Neck
        {
          OFFSET 29.8703 7.82586 -0.130764
          CHANNELS 3 Zrotation Xrotation Yrotation
          JOINT Head
          {
            OFFSET 9.52751 0.295786 -0.907742
            CHANNELS 3 Zrotation Xrotation Yrotation
            End Site
            {
              OFFSET 16.4037 0.713936 2.7358
            }
          }
        }
        JOINT LeftShoulder
        {
          OFFSET 27.5574 4.95586 2.47156
          CHANNELS 3 Zrotation Xrotation Yrotation
          JOINT LeftArm
          {
            OFFSET 1.20734 -0.998971 20.1238
            CHANNELS 3 Zrotation Xrotation Yrotation
            JOINT LeftForeArm
            {
              OFFSET 26.8049 -0.0536703 -0.155908
              CHANNELS 3 Zrotation Xrotation Yrotation
              JOINT LeftHand
              {
                OFFSET 26.6817 0 0.320147
                CHANNELS 3 Zrotation Xrotation Yrotation
                End Site
                {
                  OFFSET 18.6119 0 0.382219
                }
              }
            }
          }
        }
        JOINT RightShoulder
        {
          OFFSET 27.5927 4.71444 -2.65209
          CHANNELS 3 Zrotation Xrotation Yrotation
          JOINT RightArm
          {
            OFFSET 2.83739 -1.17114 -18.7564
            CHANNELS 3 Zrotation Xrotation Yrotation
            JOINT RightForeArm
            {
              OFFSET 28.839 -0.0548439 1.22491
              CHANNELS 3 Zrotation Xrotation Yrotation
              JOINT RightHand
              {
                OFFSET 26.5114 0 -0.101894
                CHANNELS 3 Zrotation Xrotation Yrotation
                End Site
                {
                  OFFSET 18.2168 0 0
                }
              }
            }
          }
        }
      }
    }
  }
  JOINT LeftUpLeg
  {
    OFFSET -4.76168 -1.9167 -10.2353
    CHANNELS 3 Zrotation Xrotation Yrotation
    JOINT LeftLeg
    {
      OFFSET 2.55951 -42.0585 -8.02213
      CHANNELS 3 Zrotation Xrotation Yrotation
      JOINT LeftFoot
      {
        OFFSET 3.16357 -42.5282 -3.95426
        CHANNELS 3 Zrotation Xrotation Yrotation
        JOINT LeftToeBase
        {
          OFFSET 0.346054 -6.02161 12.8035
          CHANNELS 3 Zrotation Xrotation Yrotation
          End Site
          {
            OFFSET 0.134235 -1.35082 5.13018
          }
        }
      }
    }
  }
  JOINT RightUpLeg
  {
    OFFSET -4.94151 -1.41743 10.6446
    CHANNELS 3 Zrotation Xrotation Yrotation
    JOINT RightLeg
    {
      OFFSET -2.56294 -42.0364 -7.94377
      CHANNELS 3 Zrotation Xrotation Yrotation
      JOINT RightFoot
      {
        OFFSET -3.0952 -42.555 -4.02241
        CHANNELS 3 Zrotation Xrotation Yrotation
        JOINT RightToeBase
        {
          OFFSET -0.0828122 -6.13587 12.8035
          CHANNELS 3 Zrotation Xrotation Yrotation
          End Site
          {
            OFFSET -0.131328 -1.35082 5.13018
          }
        }
      }
    }
  }
}
MOTION
Frames:	20
Frame Time:	0.0333333
-49.9485 12.8081 10.4873 -16.6081 3.65825 -10.5404 -70.1915 0 88.8779 114.262 73.0511 -32.4379 -16.1421 17.7384 19.5149 169.729 46.2345 -178.797 166.385 87.6283 -139.857 0.380062 -13.7172 -29.2345 -107.44 -5.3762 -32.713 14.6918 -11.824 -127.076 0.420957 0.000575573 0.358661 -0.154715 1.80167 29.2744 -119.209 26.1585 55.29 14.5007 13.2857 131.182 0.58676 0.000330964 0.0646657 -50.7707 -1.62327 87.9827 -3.51005 34.7891 -22.8895 -3.80421 -0.69658 0.323982 23.8864 -43.5479 4.67781 -51.5438 1.25628 91.7329 0.727671 31.9852 15.0933 0.139667 4.84085 -0.24972 8.44842 -40.8325 13.0394 
-49.9337 12.8038 10.5076 -16.6861 3.52985 -10.6092 -70.1915 0 88.8779 115.045 72.4904 -32.6687 -16.4874 17.6663 18.6097 170.335 46.081 -179.54 166.532 87.2915 -140.503 0.574548 -12.7865 -28.4536 -107.208 -4.95859 -32.641 14.6421 -11.8154 -127.153 0.420957 0.000575573 0.358661 -0.255327 2.28907 29.944 -119.022 26.1074 55.45 14.6148 13.3648 131.117 0.58676 0.000330964 0.0646657 -50.7513 -1.51835 88.2827 -3.52348 34.7511 -23.1668 -4.01085 -0.746434 0.343884 23.3792 -42.9252 4.37128 -51.4206 1.35559 92.0378 0.822607 32.0688 14.6666 -0.743557 5.19398 -0.122554 8.79395 -41.6194 13.4766 
-49.9419 12.8025 10.5086 -16.6836 3.43584 -10.6225 -70.1915 0 88.8779 114.263 72.5999 -31.6874 -15.7582 17.9275 18.141 170.672 46.1333 179.029 -173.038 87.295 -160.84 0.632336 -12.4935 -28.2328 -107.335 -4.51746 -32.815 14.6172 -11.8151 -127.201 0.420957 0.000575573 0.358661 -0.239699 2.16296 30.2197 -119.238 25.9546 55.8585 14.8149 13.5646 131.133 0.58676 0.000330964 0.0646657 -50.7765 -1.45853 88.3874 -3.51687 34.7429 -23.0717 -3.93837 -0.774006 0.331861 23.5895 -43.3251 4.20545 -51.4512 1.48228 92.3144 0.79195 32.0777 14.544 -0.421623 5.11016 -0.172763 8.71015 -41.2663 13.58 
-49.9328 12.8004 10.511 -16.6316 3.57652 -10.5317 -70.1915 0 88.8779 113.545 72.4675 -30.7004 -15.2971 17.911 17.7044 171.413 46.0675 178.904 170.213 86.9841 -143.784 0.660621 -12.3554 -28.0548 -107.551 -4.83989 -32.7708 15.3726 -12.474 -127.23 0.420957 0.000575573 0.358661 -0.338568 2.63243 30.7225 -119.389 26.6673 55.8156 14.0911 12.87 131.131 0.58676 0.000330964 0.0646657 -50.7821 -1.50061 88.1596 -3.51626 34.753 -23.0458 -3.83678 -0.665671 0.331451 23.5624 -43.2245 4.32891 -51.5121 1.36266 91.915 0.75469 32.0165 14.7493 0.192009 4.79734 -0.255336 8.6903 -40.7176 14.2118 
-49.9291 12.7927 10.5125 -16.7347 3.49332 -10.4933 -70.1915 0 88.8779 113.471 72.5268 -30.3757 -15.4878 18.1196 17.3014 174.19 46.3646 177.16 168.139 86.7949 -140.39 0.631476 -12.6216 -27.2449 -107.264 -4.37868 -32.3753 15.1874 -12.2863 -127.167 0.420957 0.000575573 0.358661 -0.394658 2.88498 31.0293 -119.013 27.0316 55.0364 14.0588 12.8873 131.237 0.58676 0.000330964 0.0646657 -50.7087 -1.39859 88.2135 -3.54105 34.7814 -23.4097 -3.95268 -0.440906 0.371066 23.8139 -43.2181 5.13994 -51.417 1.45953 91.923 0.794812 31.9987 14.8634 -0.777903 5.38005 -0.129482 8.81257 -41.7324 13.4108 
-49.9252 12.8134 10.5099 -16.6026 3.51475 -10.5027 -70.1915 0 88.8779 113.229 72.4681 -30.0759 -15.0323 18.1994 16.9925 174.055 46.2597 176.856 172.802 86.7415 -145.273 0.653568 -12.518 -27.036 -107.292 -4.25933 -32.429 14.7826 -12.0112 -127.327 0.420957 0.000575573 0.358661 -0.405932 2.93706 31.0777 -118.965 26.8766 55.0128 14.1845 13.0147 131.252 0.58676 0.000330964 0.0646657 -50.787 -1.43166 88.1645 -3.52865 34.8271 -23.133 -4.13063 -0.912672 0.339681 23.4165 -43.0039 4.32527 -51.5844 1.43728 91.9817 0.750489 31.9452 14.8566 -0.039909 4.92927 -0.225544 8.61975 -40.6703 13.9756 
-49.9224 12.8054 10.4975 -16.7009 3.59555 -10.456 -70.1915 0 88.8779 112.391 72.4556 -29.0537 -14.7861 18.1457 16.8259 173.977 46.2745 177.464 167.651 86.7514 -140.125 0.654067 -12.4993 -27.1611 -107.344 -4.43675 -32.3792 14.6521 -11.905 -127.339 0.420957 0.000575573 0.358661 -0.432372 3.1542 30.6503 -118.69 26.3819 54.666 14.6181 13.2934 130.965 0.58676 0.000330964 0.0646657 -50.6681 -1.46899 88.0567 -3.52425 34.8296 -23.0579 -4.19779 -0.782967 0.362723 23.5916 -43.2354 4.39904 -51.4642 1.49806 92.0644 0.8056 31.9571 14.7409 -0.792892 5.42568 -0.130003 8.75267 -41.8736 12.9948 
-49.9228 12.8099 10.5083 -16.6797 3.50155 -10.4898 -70.1915 0 88.8779 111.846 72.4404 -28.4091 -14.2436 18.2474 16.4746 173.705 46.2061 177.013 171.656 86.7061 -144.349 0.723767 -12.1309 -26.7459 -107.47 -3.9396 -32.4657 14.6377 -11.9616 -127.488 0.420957 0.000575573 0.358661 -0.446681 3.15048 31.0988 -119.147 26.4525 55.3249 14.2474 12.9923 131.077 0.58676 0.000330964 0.0646657 -50.773 -1.48269 88.0623 -3.5186 34.7517 -23.0859 -3.91412 -0.602789 0.348075 23.724 -43.1631 4.97125 -51.4698 1.47414 91.9864 0.774603 31.9851 14.7873 -0.765583 5.34376 -0.129129 8.88278 -41.6988 13.7367 
-49.9321 12.8131 10.5078 -16.7912 3.59828 -10.5188 -70.1915 0 88.8779 110.581 72.5449 -27.1485 -13.6849 18.3495 16.1801 174.209 46.2946 175.937 -178.984 86.7379 -153.28 0.749822 -12.0167 -26.3171 -107.702 -3.91372 -32.5029 14.9776 -12.2735 -127.539 0.420957 0.000575573 0.358661 -0.412019 3.00982 30.8425 -119.229 25.8057 55.2901 14.6592 13.3558 131.014 0.58676 0.000330964 0.0646657 -50.5736 -1.50867 88.129 -3.52011 34.8201 -23.0056 -3.79116 -0.681119 0.324087 23.4616 -43.1203 4.22525 -51.3513 1.39758 92.0431 0.755402 32.0163 14.8182 0.214143 4.7385 -0.254543 8.46257 -40.5088 13.5179 
-49.9272 12.8 10.4986 -16.7925 3.63661 -10.5135 -70.1915 0 88.8779 110.065 72.8198 -26.9215 -13.4159 18.4482 16.5183 174.222 46.388 175.327 -167.577 86.7838 -164.415 0.691215 -12.359 -26.4867 -107.825 -4.01007 -32.6115 14.7114 -12.0346 -127.518 0.420957 0.000575573 0.358661 -0.360617 2.80155 30.4204 -119.416 25.6935 55.0909 14.4391 13.1601 131.045 0.58676 0.000330964 0.0646657 -50.6143 -1.54885 88.0587 -3.50454 34.7187 -22.9074 -3.90474 -0.566394 0.350985 23.4863 -43.3615 3.80249 -51.2837 1.41664 92.0707 0.786402 32.1311 14.8022 -0.467747 5.18445 -0.17009 8.81627 -41.6657 13.5091 
-49.8919 12.7907 10.494 -16.8884 3.58828 -10.4937 -70.1915 0 88.8779 108.964 72.8517 -25.4906 -12.8417 18.5789 16.0303 174.211 46.3767 175.19 -168.125 86.7534 -164.003 0.739456 -12.0811 -26.3161 -107.658 -3.33861 -32.7041 13.7621 -11.3392 -127.805 0.420957 0.000575573 0.358661 -0.362091 2.78775 30.5526 -119.627 25.4952 55.5423 14.9651 13.6079 130.93 0.58676 0.000330964 0.0646657 -50.5498 -1.51901 88.0833 -3.52226 34.751 -23.1469 -3.94427 -0.77834 0.332099 23.374 -42.7796 4.66287 -51.2429 1.43818 92.0435 0.814759 32.0855 15.0812 -0.463293 5.29856 -0.179107 8.54177 -41.4302 12.6807 
-49.8819 12.7729 10.5011 -16.927 3.67906 -10.4323 -70.1915 0 88.8779 108.438 72.7386 -24.7022 -12.6747 18.5446 15.6948 174.698 46.281 175.621 178.195 86.6217 -150.193 0.745004 -12.0731 -26.0696 -108.065 -3.86796 -32.5196 14.6911 -12.0412 -127.573 0.420957 0.000575573 0.358661 -0.403175 2.96904 30.8023 -119.709 25.7423 55.7173 14.4587 13.0816 130.839 0.58676 0.000330964 0.0646657 -50.4147 -1.50962 87.9887 -3.52334 34.9138 -22.9141 -4.00758 -0.799142 0.337529 22.9851 -42.6409 3.69049 -51.1857 1.38362 91.8721 0.778549 32.0506 14.7971 0.0769383 5.18847 -0.26564 8.67768 -41.1973 13.5337 
-49.8642 12.7716 10.5055 -16.8464 3.57715 -10.5708 -70.1915 0 88.8779 108.477 72.9228 -24.9907 -12.5887 18.7065 15.8173 175.581 46.2866 174.669 -168.282 86.5404 -162.771 0.714304 -12.2715 -26.0239 -107.864 -3.28747 -32.5882 14.529 -11.9547 -127.695 0.420957 0.000575573 0.358661 -0.403263 2.93986 30.9764 -119.863 26.1863 55.6798 14.3039 12.9409 130.851 0.58676 0.000330964 0.0646657 -50.6054 -1.60755 88.0109 -3.5257 34.836 -23.0722 -3.95855 -1.06835 0.301212 22.4948 -41.7576 3.95274 -51.2612 1.27836 91.7829 0.792687 32.0957 15.1317 -0.789248 5.52083 -0.137249 8.67 -41.8672 12.6698 
-49.8737 12.7648 10.4903 -16.869 3.56345 -10.5504 -70.1915 0 88.8779 107.869 72.7877 -23.9735 -12.1224 18.7477 15.253 174.394 45.9842 175.655 -173.428 86.4148 -158.672 0.773392 -11.9335 -25.6808 -108.033 -3.24225 -32.5696 14.1375 -11.6218 -127.707 0.420957 0.000575573 0.358661 -0.424231 2.99493 31.3098 -119.989 26.1082 56.175 14.8575 13.4796 130.878 0.58676 0.000330964 0.0646657 -50.5657 -1.64279 87.907 -3.5079 34.9002 -22.6857 -3.87014 -1.21273 0.274426 22.2928 -41.8556 3.05079 -51.2934 1.37046 92.0816 0.808971 32.0552 14.8804 0.0781295 5.02494 -0.253284 8.46286 -40.9176 12.9922 
-49.8637 12.7555 10.4966 -16.8648 3.51504 -10.5824 -70.1915 0 88.8779 107.786 72.808 -23.9217 -12.0819 18.7755 15.2244 175.262 45.9253 175.01 -166.927 86.2371 -164.39 0.765912 -11.9799 -25.6977 -108.134 -3.85459 -32.606 14.6807 -12.0115 -127.526 0.420957 0.000575573 0.358661 -0.454716 3.1433 31.3797 -119.994 26.4009 56.1533 14.3938 12.9749 130.742 0.58676 0.000330964 0.0646657 -50.5264 -1.58382 88.1526 -3.51399 35.0228 -22.5968 -3.50372 -1.18754 0.233553 22.0652 -41.6603 2.69073 -51.2669 1.40595 92.1591 0.829973 32.0881 14.5279 -0.580673 5.40624 -0.166141 8.82882 -41.78 13.417 
-49.8757 12.7455 10.4495 -16.8262 3.49061 -10.5541 -70.1915 0 88.8779 107.266 72.8206 -23.1485 -11.4977 18.9144 14.8507 174.539 45.8858 174.856 -156.48 86.1097 -175.183 0.813957 -11.6962 -25.4128 -108.194 -3.40234 -32.7101 14.474 -11.9386 -127.768 0.420957 0.000575573 0.358661 -0.374549 2.754 31.1768 -120.325 25.891 56.7135 14.4025 12.9562 130.685 0.58676 0.000330964 0.0646657 -50.6319 -1.60248 88.203 -3.5272 35.034 -22.7921 -3.46574 -1.22838 0.224603 22.2481 -41.3471 4.01119 -51.3641 1.45317 92.1984 0.804862 32.082 14.6933 -0.680953 5.2495 -0.137404 8.57334 -41.2149 13.0787 
-49.8694 12.7421 10.4658 -16.8445 3.47811 -10.5689 -70.1915 0 88.8779 106.153 72.8157 -22.0576 -10.9431 18.8632 14.7384 174.567 45.8025 175.051 -159.099 86.086 -172.3 0.860505 -11.4118 -25.1345 -108.175 -2.87308 -32.7416 14.3938 -11.883 -127.8 0.420957 0.000575573 0.358661 -0.39827 3.05393 30.168 -119.707 24.7278 56.1141 14.619 13.1669 130.698 0.58676 0.000330964 0.0646657 -50.6371 -1.48365 88.6347 -3.54389 34.9963 -23.1213 -3.36591 -1.28353 0.206813 22.3906 -41.0962 5.07107 -51.3299 1.34377 91.9796 0.865931 32.0818 14.9162 -0.586408 5.16099 -0.147681 8.49215 -41.336 12.592 
-49.8737 12.7568 10.4337 -16.8522 3.57935 -10.4631 -70.1915 0 88.8779 105.714 72.6955 -21.4894 -11.0642 18.77 14.5368 177.288 45.7823 173.591 -162.411 85.8186 -167.448 0.853368 -11.5006 -24.6175 -107.575 -1.93871 -32.3724 15.3074 -12.6759 -127.791 0.420957 0.000575573 0.358661 -0.434921 3.17031 30.638 -119.255 24.7827 56.1319 14.8769 13.3748 130.623 0.58676 0.000330964 0.0646657 -50.5361 -1.45633 88.6893 -3.48088 34.9722 -22.1479 -3.00875 -1.46951 0.14515 22.2605 -41.9761 2.68183 -51.2974 1.38659 91.8356 0.852479 32.0778 14.9159 -1.32388 5.61443 -0.0483981 8.76923 -42.2522 12.6043 
-49.8893 12.7507 10.4342 -16.8849 3.36957 -10.5183 -70.1915 0 88.8779 105.13 72.6086 -20.5678 -10.52 18.8572 13.9986 176.3 45.4981 174.454 -168.686 85.691 -161.554 0.966227 -10.7432 -24.0708 -107.195 -1.08571 -32.8017 15.514 -12.9015 -127.884 0.420957 0.000575573 0.358661 -0.42876 3.14209 30.6087 -118.664 24.8044 56.7407 14.7731 13.0768 130.201 0.58676 0.000330964 0.0646657 -50.5207 -1.3673 89.0925 -3.49395 35.0948 -22.1702 -2.53198 -1.53249 0.083253 22.6842 -42.0084 4.04666 -51.276 1.50682 92.2636 0.881181 32.1252 14.3295 -0.607148 5.06859 -0.137503 8.60109 -41.2025 13.2095 
-49.8596 12.748 10.4392 -16.8973 3.22689 -10.5527 -70.1915 0 88.8779 104.041 72.5406 -19.2888 -9.91858 18.8888 13.5446 176.248 45.2584 174.201 -168.267 85.4154 -162.084 1.02018 -10.3643 -23.5416 -107.122 -0.776162 -32.7582 15.7075 -13.1471 -128.039 0.420957 0.000575573 0.358661 -0.368442 3.01498 29.4564 -117.483 22.8274 56.6628 15.3076 13.5517 130.151 0.58676 0.000330964 0.0646657 -50.621 -1.35808 89.2426 -3.47534 34.9067 -22.1581 -2.46767 -1.26785 0.102179 23.3679 -42.4354 5.38406 -51.2505 1.53037 92.2034 0.886199 32.1701 14.8419 -1.20021 5.5949 -0.0691606 8.66042 -42.117 12.3325 
